<?xml version="1.0" standalone="no"?>
<!DOCTYPE svg PUBLIC "-//W3C//DTD SVG 20010904//EN"
 "http://www.w3.org/TR/2001/REC-SVG-20010904/DTD/svg10.dtd">
<svg version="1.0" xmlns="http://www.w3.org/2000/svg"
 width="732.000000pt" height="782.000000pt" viewBox="0 0 732.000000 782.000000"
 preserveAspectRatio="xMidYMid meet">

<g transform="translate(0.000000,782.000000) scale(0.100000,-0.100000)"
fill="#000000" stroke="none">
<path d="M2055 7610 c-4 -6 -32 -24 -63 -40 -31 -16 -73 -44 -93 -61 -20 -18
-72 -51 -114 -73 l-78 -41 -48 -94 c-80 -159 -84 -182 -84 -521 0 -255 -2
-299 -16 -320 -9 -14 -18 -39 -21 -56 -5 -36 0 -39 137 -92 102 -39 151 -52
198 -52 20 0 37 -4 37 -10 0 -5 -5 -10 -10 -10 -24 0 -139 -96 -282 -235 -170
-164 -254 -235 -281 -235 -10 0 -21 -10 -26 -23 -5 -13 -28 -35 -51 -51 -35
-23 -44 -25 -57 -14 -32 26 -160 184 -271 332 -158 213 -167 224 -229 294 -31
34 -62 62 -70 62 -9 0 -14 9 -13 23 4 40 0 47 -24 47 -19 0 -27 -7 -34 -32
-39 -132 -36 -125 -40 -94 -2 15 4 59 13 96 l17 68 49 7 c51 7 79 25 79 52 0
15 -60 79 -92 98 -15 9 -16 20 -8 92 10 95 4 284 -11 330 -12 38 -76 98 -133
124 -56 25 -130 25 -172 -2 -42 -26 -83 -108 -91 -183 -3 -31 -10 -59 -14 -62
-16 -9 -10 -57 23 -185 l32 -127 -29 -24 c-24 -21 -29 -34 -33 -85 -5 -75 18
-168 63 -248 35 -63 115 -146 160 -167 17 -8 28 -24 35 -52 26 -106 31 -116
51 -116 11 0 23 9 28 22 7 20 12 17 53 -40 25 -34 52 -68 60 -76 8 -7 48 -62
89 -121 110 -158 240 -327 268 -350 24 -19 91 -48 97 -42 2 2 -27 39 -64 82
-63 75 -86 106 -217 295 -50 72 -85 119 -222 297 l-62 81 9 58 c6 33 10 62 10
67 0 4 6 7 14 7 8 0 23 14 33 30 10 17 31 38 47 46 35 17 26 24 117 -92 100
-127 121 -155 161 -211 43 -61 152 -196 212 -264 23 -25 55 -62 73 -82 29 -35
57 -47 65 -29 4 10 98 65 103 60 2 -2 17 -34 34 -70 l30 -67 -92 -83 c-126
-114 -159 -138 -192 -138 -23 0 -25 -3 -16 -14 20 -24 65 -35 88 -22 12 6 67
53 122 104 56 50 106 92 111 92 8 0 16 -23 36 -103 14 -61 55 -47 141 51 37
42 78 90 90 107 l21 30 7 -30 c4 -17 45 -140 91 -275 47 -135 100 -293 118
-351 32 -104 32 -106 12 -115 -29 -13 -71 -89 -138 -249 -92 -218 -242 -655
-310 -900 -16 -60 -36 -117 -44 -126 -20 -22 -17 -62 5 -86 14 -15 38 -23 88
-28 37 -4 84 -14 104 -22 36 -14 36 -15 43 -86 25 -290 36 -533 36 -857 0
-400 -12 -557 -54 -715 -17 -64 -21 -94 -14 -102 8 -10 1 -13 -31 -13 -54 0
-255 -101 -326 -164 -46 -40 -49 -46 -40 -71 24 -66 193 -131 320 -123 116 8
265 89 265 144 0 17 30 18 65 2 21 -9 28 -9 39 3 18 19 35 112 41 229 6 97 25
1293 25 1537 l0 136 58 -7 c31 -4 99 -20 150 -36 103 -34 144 -37 186 -15 43
23 47 19 40 -35 -5 -42 -4 -53 11 -64 16 -11 17 -38 12 -352 -4 -335 -11 -415
-52 -654 -8 -47 -19 -125 -25 -175 -23 -197 -38 -292 -49 -313 -6 -12 -17 -72
-23 -132 -10 -94 -14 -110 -29 -110 -30 0 -31 -18 -6 -73 38 -83 106 -150 195
-193 76 -37 79 -38 197 -37 103 0 133 4 209 27 94 30 136 60 136 98 0 52 -173
179 -309 226 -32 11 -33 14 -27 49 25 143 56 821 65 1393 l6 435 55 19 c61 21
180 32 233 22 19 -4 62 -24 96 -46 60 -39 63 -40 91 -25 17 9 30 20 30 25 0 5
-25 66 -56 137 -97 221 -115 267 -129 318 -31 119 -184 545 -266 740 -38 91
-61 169 -79 274 -12 69 -24 107 -34 113 -13 8 -13 13 3 51 22 53 50 155 101
372 52 217 71 285 80 285 11 0 90 -112 90 -128 0 -9 25 -67 55 -129 31 -62 55
-119 54 -126 -5 -41 12 -47 60 -22 l28 14 69 -92 c38 -51 96 -123 129 -162 77
-90 177 -213 200 -248 9 -15 27 -30 39 -33 26 -8 130 -128 185 -215 54 -87
121 -149 160 -149 46 0 60 -9 83 -54 45 -89 226 -336 246 -336 12 0 105 -129
152 -210 62 -107 100 -169 132 -215 47 -67 117 -176 168 -260 26 -44 84 -140
128 -212 136 -222 127 -195 127 -373 0 -172 11 -223 57 -272 28 -30 28 -30 22
-131 -8 -117 11 -231 50 -310 19 -39 21 -49 9 -58 -7 -6 -13 -15 -13 -20 0 -5
-28 -37 -62 -71 -35 -35 -72 -82 -82 -105 -12 -27 -26 -43 -36 -43 -22 0 -177
101 -274 178 -109 86 -282 263 -389 397 -27 33 -54 68 -62 77 -21 25 -39 64
-70 150 -15 42 -35 84 -45 93 -29 26 -57 4 -75 -60 -9 -30 -18 -55 -21 -55 -2
0 -29 23 -59 50 -30 28 -64 50 -75 50 -31 0 -41 -39 -29 -107 10 -54 9 -58
-13 -74 -38 -29 -30 -87 28 -200 27 -52 55 -110 63 -129 22 -52 137 -198 214
-270 151 -142 261 -195 572 -276 77 -20 142 -38 144 -40 2 -2 -8 -52 -22 -111
-15 -59 -29 -126 -32 -148 -5 -34 18 -255 40 -391 l7 -41 -150 -5 c-162 -4
-182 -11 -182 -56 0 -19 23 -48 88 -112 172 -169 219 -205 239 -188 7 6 13 16
13 23 0 7 -56 63 -125 125 -69 62 -130 120 -135 130 -8 16 1 18 103 27 62 6
130 10 151 9 36 -1 40 2 47 29 5 18 3 62 -6 112 -22 126 -36 292 -29 348 12
96 65 278 106 360 54 107 116 200 155 232 24 20 45 34 47 32 2 -2 18 -32 36
-66 22 -42 61 -90 120 -147 160 -155 276 -188 522 -152 218 33 326 75 402 156
51 55 65 57 92 15 18 -27 82 -189 116 -290 29 -89 35 -263 14 -417 -25 -177
-43 -279 -56 -312 -9 -26 -8 -32 17 -58 14 -15 33 -28 40 -28 27 0 89 -40 153
-99 36 -32 62 -62 59 -65 -11 -11 -114 -25 -208 -28 l-95 -3 -65 92 c-36 51
-85 116 -108 146 -24 29 -49 71 -57 93 -22 63 -36 203 -26 254 12 61 12 183 0
215 -7 17 -16 25 -28 23 -15 -3 -17 -14 -14 -77 2 -40 -2 -102 -9 -137 -29
-148 18 -336 109 -436 21 -24 55 -68 75 -98 48 -75 87 -127 120 -163 33 -36
33 -47 1 -71 -36 -25 -159 -19 -224 12 -124 60 -191 118 -235 201 -10 20 -22
83 -30 155 -7 67 -21 176 -31 244 -15 104 -16 129 -5 159 11 29 11 37 0 44
-20 13 -27 11 -49 -11 -25 -25 -26 -73 -5 -214 8 -55 21 -156 29 -224 10 -85
22 -139 39 -176 14 -30 23 -57 19 -60 -11 -12 -218 -6 -282 8 -36 7 -97 28
-137 46 -66 30 -72 34 -67 59 2 14 13 91 25 171 24 174 44 255 70 288 27 35
25 62 -4 62 -40 0 -62 -38 -91 -155 -15 -63 -40 -199 -56 -316 -5 -38 -21 -97
-35 -132 -25 -61 -28 -65 -85 -91 -44 -19 -76 -26 -122 -26 -83 1 -203 17
-229 31 -21 11 -21 11 7 41 16 17 58 50 94 73 99 65 185 152 203 205 37 111
50 171 58 270 5 58 16 126 24 150 23 62 32 195 15 215 -15 18 -50 20 -51 3 -1
-7 -1 -38 0 -68 1 -30 -7 -91 -17 -135 -11 -44 -23 -118 -26 -165 -6 -83 -42
-215 -79 -287 -15 -29 -49 -58 -167 -143 -97 -71 -160 -125 -160 -139 0 -5 11
-23 25 -39 39 -46 101 -63 255 -69 l135 -5 65 34 c56 29 69 41 92 87 15 29 29
55 31 58 3 2 20 -5 38 -16 19 -11 66 -31 104 -46 67 -25 78 -26 247 -24 l178
1 52 -40 c95 -72 203 -112 304 -112 53 0 68 5 110 33 65 44 72 58 51 101 -9
20 -12 36 -6 36 46 0 210 24 235 35 43 18 69 57 55 83 -25 47 -201 187 -248
197 -29 6 -31 8 -23 33 5 15 22 99 37 187 23 131 28 189 27 320 l0 160 -55
155 c-58 165 -102 243 -171 306 l-41 37 18 36 c11 20 25 43 32 52 21 25 51
123 68 222 9 50 23 113 31 139 21 64 15 122 -11 126 -19 3 -23 -11 -53 -170
-30 -155 -38 -184 -84 -276 -42 -84 -63 -114 -112 -159 -99 -89 -284 -173
-383 -173 -100 0 -323 83 -421 157 -73 55 -175 231 -206 358 -22 88 -22 237
-1 289 19 44 12 58 -23 54 -34 -4 -50 27 -63 119 -13 89 5 273 27 290 12 9 15
21 10 44 l-6 31 28 -17 c15 -10 39 -30 54 -44 15 -14 65 -60 112 -101 46 -41
87 -83 91 -92 9 -24 27 -23 87 8 107 54 320 72 464 39 78 -18 220 -61 246 -76
29 -15 37 -11 59 32 34 68 106 132 175 157 34 12 67 22 74 22 10 0 12 -22 8
-97 -6 -107 -20 -156 -79 -280 -21 -44 -39 -84 -39 -87 0 -3 15 -6 33 -6 30 1
34 5 60 63 66 148 87 226 87 329 0 157 -17 172 -141 119 -95 -40 -156 -86
-191 -142 -16 -27 -37 -49 -46 -49 -10 0 -70 18 -135 40 -221 74 -383 75 -564
4 l-62 -25 -128 116 c-126 115 -192 161 -219 151 -14 -5 -34 24 -154 234 -41
72 -110 186 -153 253 -42 67 -94 148 -115 181 -20 32 -56 86 -79 120 -77 112
-134 216 -129 234 4 11 -18 48 -63 107 -71 92 -115 153 -221 309 -61 90 -68
106 -50 106 15 0 12 32 -6 75 -8 20 -14 39 -12 40 2 2 22 -1 45 -8 32 -8 45
-8 57 2 22 18 20 59 -4 98 l-19 32 42 3 c36 3 42 6 45 28 2 21 -9 33 -75 76
-106 70 -179 110 -233 125 -44 13 -64 31 -121 108 -15 20 -42 52 -60 71 -114
123 -303 332 -333 370 -58 72 -150 191 -161 208 -103 160 -205 306 -238 340
-23 24 -71 58 -107 76 -91 46 -243 89 -310 88 -39 -1 -61 4 -75 16 -19 15 -40
52 -30 52 2 0 37 5 79 10 168 24 454 124 470 166 5 14 -9 33 -63 84 -50 47
-77 82 -95 123 -14 31 -30 57 -35 57 -4 0 -14 28 -21 63 -6 34 -23 89 -36 122
-14 33 -41 101 -60 150 -20 50 -47 119 -61 155 -58 149 -88 188 -193 259 -141
96 -209 121 -325 121 -53 0 -97 -4 -100 -10z m245 -60 c19 -5 56 -27 81 -47
25 -21 67 -53 93 -70 59 -42 117 -132 152 -236 15 -45 37 -102 49 -127 13 -25
42 -108 66 -185 29 -97 54 -157 80 -195 20 -30 49 -77 64 -105 14 -27 35 -60
47 -72 l20 -22 -53 -26 c-79 -38 -239 -75 -355 -82 l-100 -6 -22 52 c-11 28
-27 51 -34 51 -7 0 11 16 39 35 55 37 129 132 156 201 8 22 21 77 28 122 16
108 3 182 -61 332 -45 106 -47 116 -32 128 16 12 14 16 -15 42 -18 16 -49 32
-70 36 -21 4 -92 27 -158 52 -128 47 -190 56 -290 38 l-50 -8 59 43 c82 59
117 70 201 64 39 -2 86 -9 105 -15z m-95 -156 c28 -12 84 -32 125 -44 41 -12
80 -30 87 -39 42 -54 109 -211 132 -307 15 -62 0 -198 -31 -282 -27 -74 -124
-175 -183 -191 -107 -29 -215 -4 -333 78 -159 112 -252 289 -252 480 0 248
232 404 455 305z m-448 -61 c-49 -71 -61 -118 -61 -248 -1 -148 21 -227 92
-336 80 -123 198 -218 325 -264 58 -21 62 -25 81 -75 l20 -53 -21 -17 c-17
-13 -52 -18 -175 -23 -174 -8 -200 -3 -331 60 -75 37 -77 39 -72 68 3 17 15
43 26 58 15 21 18 32 10 40 -6 6 -11 27 -11 47 0 19 -5 96 -11 170 -16 182 1
323 56 460 36 91 81 167 92 156 4 -3 -6 -23 -20 -43z m-1317 -225 c67 -40 90
-81 90 -159 0 -31 -2 -58 -4 -60 -6 -5 -183 6 -257 16 l-52 7 6 57 c5 61 26
111 60 149 31 34 90 30 157 -10z m17 -274 c23 -3 50 -14 61 -24 16 -16 18 -25
11 -84 -9 -74 -14 -86 -34 -86 -17 0 -30 -39 -17 -52 5 -5 27 -11 48 -12 22
-1 50 -8 64 -16 l25 -14 -34 -7 c-19 -4 -61 -3 -95 2 -38 5 -64 5 -71 -2 -16
-16 9 -44 46 -49 39 -6 39 -6 19 -125 -6 -38 -13 -99 -16 -135 -3 -36 -8 -72
-10 -80 -10 -29 -21 11 -16 56 4 37 0 50 -22 79 -25 32 -26 38 -15 69 17 46 5
81 -36 109 l-35 24 25 23 c14 13 25 31 25 41 0 28 -33 60 -70 68 -33 6 -34 9
-66 111 -22 75 -28 107 -20 113 11 8 147 2 233 -9z m-137 -281 c0 -19 -25 -43
-45 -43 -13 0 -27 -4 -30 -10 -9 -14 23 -70 40 -70 24 0 65 -23 65 -36 0 -15
-35 -28 -50 -19 -13 8 -13 -4 1 -43 6 -17 19 -34 28 -37 25 -8 58 -46 66 -75
4 -19 1 -28 -14 -37 -18 -11 -25 -9 -53 20 -18 18 -51 69 -73 112 -33 66 -40
91 -44 153 -2 53 0 77 9 82 13 8 100 10 100 3z m2047 -100 c0 -16 17 -69 38
-118 37 -89 53 -107 143 -161 2 -1 -18 -30 -43 -65 -25 -35 -63 -89 -84 -119
-22 -30 -55 -73 -75 -95 -20 -22 -36 -47 -36 -56 0 -9 -7 -22 -15 -29 -21 -17
-43 4 -149 145 -87 115 -121 173 -127 215 l-4 25 92 0 c95 0 121 9 110 39 -5
13 -26 16 -104 18 l-98 1 85 6 c47 3 96 12 108 19 21 12 26 11 39 -7 15 -22
38 -27 48 -11 3 6 -5 38 -18 73 -14 34 -28 77 -32 95 -6 31 -6 32 27 33 18 0
42 4 53 9 34 15 42 11 42 -17z m-404 -301 c11 -65 171 -297 284 -411 60 -60
99 -111 85 -111 -28 0 -320 187 -352 225 -11 13 -11 25 -1 65 16 64 6 82 -64
110 l-55 22 0 54 c0 50 2 54 24 54 13 0 26 7 30 15 3 8 14 15 24 15 15 0 21
-9 25 -38z m692 7 c12 -36 -3 -64 -55 -108 -55 -46 -64 -80 -34 -126 15 -23
14 -26 -5 -53 -11 -17 -58 -64 -103 -106 l-82 -76 -28 27 c-15 15 -28 30 -28
34 0 4 14 21 30 37 17 17 30 36 30 42 0 6 28 49 63 95 34 46 80 110 102 141
53 75 85 114 95 114 5 0 12 -9 15 -21z m185 -33 c127 -64 138 -76 313 -340 55
-83 116 -168 134 -190 31 -33 34 -43 28 -75 -7 -39 -53 -122 -99 -177 l-28
-35 -25 23 c-13 12 -34 38 -46 58 -20 33 -129 185 -186 259 -14 18 -35 50 -46
70 -13 23 -29 37 -44 39 -38 6 -47 -13 -26 -52 16 -30 18 -41 8 -73 -28 -91
-65 -230 -101 -378 -21 -88 -51 -200 -66 -248 -19 -58 -25 -92 -18 -100 5 -7
12 -24 16 -39 7 -29 17 -25 -117 -49 -37 -6 -70 -10 -72 -7 -13 13 -25 215
-25 431 0 210 3 254 16 284 13 25 14 37 5 46 -6 6 -11 18 -11 26 0 8 -7 22
-16 32 -15 16 -9 24 89 119 58 55 108 112 111 125 3 13 -1 43 -11 66 l-16 42
46 44 c54 51 67 72 67 108 0 26 2 27 38 21 20 -4 57 -17 82 -30z m-1032 -56
c-1 -38 25 -67 80 -92 42 -19 43 -20 35 -56 -17 -86 1 -110 157 -217 125 -84
235 -139 283 -139 35 -1 37 -2 32 -26 -9 -40 -10 -588 -1 -666 l8 -71 -39 -6
c-49 -9 -271 -9 -311 -1 -38 8 -31 -9 -232 594 -77 230 -80 238 -96 244 -8 3
-21 -2 -29 -12 -111 -136 -178 -212 -184 -212 -4 0 -15 26 -25 58 -10 31 -38
99 -64 151 -43 88 -45 94 -27 104 26 14 209 183 315 291 46 47 88 86 92 86 3
0 6 -14 6 -30z m1592 -609 c0 -4 65 -79 145 -166 161 -174 159 -169 115 -254
-32 -63 -53 -175 -45 -241 l7 -55 -22 20 c-12 11 -40 45 -61 75 -22 30 -64 84
-94 120 -69 82 -225 285 -225 293 0 4 22 34 49 68 27 34 59 85 71 115 20 47
24 52 41 43 10 -5 19 -13 19 -18z m309 -497 c-12 -38 -25 -94 -30 -124 -7 -49
-8 -46 -5 26 3 55 11 97 25 129 30 68 35 51 10 -31z m104 24 c32 -49 59 -70
81 -64 14 3 50 -8 97 -30 66 -32 72 -37 52 -45 -37 -14 -29 -49 23 -99 25 -25
50 -53 55 -63 9 -16 7 -16 -28 3 -21 11 -51 30 -66 42 -32 26 -60 17 -65 -22
-2 -13 -13 -31 -24 -39 -20 -16 -20 -17 11 -106 17 -50 31 -106 31 -126 0 -44
-20 -65 -48 -50 -26 14 -110 125 -132 176 -25 56 -60 205 -60 255 0 42 40 190
51 190 4 0 13 -10 22 -22z m-1138 -240 c11 -50 114 -357 130 -389 34 -65 165
-434 165 -464 0 -21 36 -121 65 -180 8 -16 30 -70 49 -120 19 -49 48 -120 65
-157 17 -38 29 -68 27 -68 -2 0 -29 12 -60 26 -109 50 -200 44 -406 -28 -116
-41 -294 -77 -385 -79 -33 0 -74 9 -120 26 -62 24 -89 28 -235 34 l-165 7 -90
43 c-60 29 -111 46 -153 51 -35 5 -66 11 -70 14 -3 4 1 19 10 34 10 16 33 84
52 153 108 380 341 1013 378 1027 4 2 16 18 24 35 l16 31 15 -28 c16 -31 46
-32 51 -1 3 19 11 20 165 22 107 1 203 8 282 21 178 29 182 29 190 -10z m1446
-420 c32 -49 72 -107 89 -128 45 -57 36 -72 -11 -17 -27 31 -47 46 -58 43 -11
-4 -24 8 -44 42 -15 26 -37 61 -48 79 -20 32 -18 90 3 77 5 -4 36 -47 69 -96z
m229 -355 c33 -52 41 -85 9 -38 -28 42 -51 85 -44 85 3 0 19 -21 35 -47z m175
-284 c22 -41 11 -36 -14 7 -12 19 -16 32 -11 29 6 -3 17 -19 25 -36z m45 -69
c12 -16 19 -30 16 -30 -2 0 -14 14 -26 30 -12 17 -19 30 -16 30 2 0 14 -13 26
-30z m38 -65 c-3 -3 -9 2 -12 12 -6 14 -5 15 5 6 7 -7 10 -15 7 -18z m109
-160 c21 -42 1 -19 -26 30 -13 22 -15 31 -6 20 9 -11 23 -33 32 -50z m-2934
-90 c20 -8 66 -15 102 -15 l66 0 -6 -557 c-8 -675 -21 -1230 -31 -1260 -6 -21
-12 -23 -75 -23 -78 0 -83 -4 -87 -67 -2 -16 -18 -30 -66 -53 -54 -27 -74 -31
-137 -31 -41 0 -94 7 -118 16 -51 18 -111 53 -111 65 0 11 151 107 217 137 51
23 94 27 141 12 8 -2 19 4 25 13 10 14 8 22 -10 40 -19 18 -20 23 -7 32 19 14
71 225 84 341 35 303 19 921 -34 1322 -4 26 0 43 9 43 2 0 19 -7 38 -15z m917
-243 c0 -119 -5 -305 -10 -412 -5 -107 -17 -341 -25 -520 -19 -408 -32 -589
-47 -663 -13 -72 -5 -83 59 -80 54 2 94 -16 200 -89 70 -49 91 -74 75 -90 -22
-22 -172 -50 -272 -50 -157 -1 -231 31 -306 133 -31 43 -35 54 -26 69 16 26
49 195 66 337 30 245 48 360 67 432 42 162 68 1037 31 1060 -8 5 -10 19 -6 39
6 29 10 32 43 32 20 0 59 6 86 14 28 7 53 11 58 9 4 -2 7 -102 7 -221z m1421
-718 c24 -58 52 -110 61 -115 10 -5 37 -35 60 -67 52 -72 338 -357 398 -397
25 -16 68 -46 95 -66 28 -20 75 -49 105 -64 30 -15 58 -32 61 -38 4 -5 -4 -31
-17 -57 l-24 -47 -112 24 c-116 26 -305 91 -400 139 -137 69 -345 280 -340
346 2 20 -8 40 -36 71 -37 40 -122 185 -122 207 0 5 7 10 15 10 8 0 24 9 34
19 18 18 19 23 5 67 -8 26 -12 49 -9 52 2 3 23 -12 45 -32 53 -48 78 -45 105
12 11 23 22 42 26 42 4 0 26 -48 50 -106z m2115 -635 c21 -35 -108 -137 -212
-167 -91 -27 -137 -34 -129 -22 3 6 14 10 23 10 9 0 35 11 57 25 22 14 56 32
75 41 49 23 148 93 154 110 6 17 22 18 32 3z m-786 -120 c75 -41 198 -79 257
-79 17 0 35 -5 39 -11 5 -9 -18 -11 -88 -7 -111 6 -185 34 -254 98 -24 22 -40
40 -36 40 4 0 41 -19 82 -41z"/>
<path d="M2271 7248 c-28 -30 -26 -83 4 -83 13 0 21 8 23 23 4 28 19 28 49 0
21 -20 25 -20 39 -6 14 14 13 18 -13 46 -39 43 -75 50 -102 20z"/>
<path d="M1924 7175 c-23 -35 -24 -98 -3 -103 11 -2 22 10 33 38 13 33 20 40
34 35 64 -27 72 -29 82 -19 27 27 -34 74 -94 74 -27 0 -40 -6 -52 -25z"/>
<path d="M2200 7085 c-9 -11 -6 -23 14 -58 34 -58 27 -81 -23 -74 -20 3 -46 8
-58 12 -17 5 -25 3 -29 -10 -19 -49 107 -87 156 -47 46 37 27 151 -29 181 -14
8 -22 7 -31 -4z"/>
<path d="M2355 6858 c-11 -6 -87 -14 -171 -18 -201 -8 -210 -15 -151 -125 44
-81 102 -125 165 -125 113 1 200 68 236 184 17 54 17 58 1 77 -20 21 -50 24
-80 7z m24 -85 c-16 -42 -57 -91 -89 -108 -29 -15 -105 -20 -134 -9 -18 7 -86
96 -86 113 0 7 34 11 103 12 56 0 120 4 142 8 72 15 76 14 64 -16z"/>
<path d="M2266 5474 c-24 -23 -19 -43 11 -55 55 -21 83 11 44 50 -25 25 -35
26 -55 5z"/>
<path d="M2251 5256 c-14 -16 -5 -43 19 -56 32 -17 55 31 28 58 -16 16 -33 15
-47 -2z"/>
<path d="M2287 5002 c-24 -27 -22 -52 6 -52 29 0 53 36 36 56 -15 18 -23 18
-42 -4z"/>
<path id="tailup" fill="#f65282" d="M4026 2697 c-10 -8 -16 -22 -14 -33 4 -19 8 -20 69 -7 36 7 101 -26
117 -60 24 -49 73 -26 53 26 -12 30 -38 51 -89 70 -51 20 -112 22 -136 4z"/>
<path d="M5506 2491 c-24 -26 -13 -61 19 -61 20 0 45 24 45 44 0 8 -31 36 -39
36 -4 0 -16 -9 -25 -19z"/>
<path d="M5990 2445 c-17 -20 -5 -62 21 -70 24 -8 59 19 59 45 0 37 -55 55
-80 25z"/>
<path d="M5695 2369 c-57 -13 -85 -29 -100 -59 -25 -49 26 -116 118 -155 20
-8 37 -20 37 -26 0 -34 -36 -125 -64 -162 -57 -75 -110 -75 -182 -1 -40 42
-53 68 -69 147 -6 30 -39 38 -49 12 -9 -26 12 -112 38 -154 91 -143 244 -157
320 -28 l25 41 10 -28 c6 -15 11 -31 11 -35 0 -5 18 -25 40 -45 74 -67 161
-44 220 58 26 46 30 60 20 71 -21 25 -37 17 -60 -30 -25 -52 -63 -85 -96 -85
-29 0 -81 67 -88 114 -13 83 -13 136 0 136 7 0 29 14 49 31 26 23 35 39 35 63
0 47 -33 92 -89 121 -54 27 -64 28 -126 14z m5 -66 c-8 -3 -23 -12 -32 -21
-10 -8 -18 -11 -18 -6 0 17 23 34 45 33 14 0 16 -2 5 -6z"/>
<path id="taildown1" fill="#f65282" d="M3880 1807 c0 -72 117 -185 182 -175 40 6 29 26 -37 70 -51 32 -73
54 -91 91 -29 56 -54 63 -54 14z"/>
<path id="taildown2" fill="#f65282" d="M3885 1620 c-9 -14 20 -65 47 -82 65 -42 198 -64 198 -33 0 17 -23
29 -87 45 -23 6 -63 26 -88 45 -47 37 -60 41 -70 25z"/>

</g>
</svg>
